<svg width="57" height="59" viewBox="0 0 57 59" fill="none" xmlns="http://www.w3.org/2000/svg">
<path d="M55.3712 33.121C55.9024 32.5586 56.2148 31.8712 56.2148 31.09C56.2148 29.4653 54.9963 28.2155 53.3715 28.2155C52.5591 28.2155 51.8405 28.5592 51.3406 29.0591L27.4066 53.493L30.7499 53.493L6.81575 29.0591C6.28463 28.5591 5.56602 28.2155 4.78501 28.2155C3.16029 28.2155 1.94159 29.4653 1.94159 31.09C1.94159 31.8712 2.25419 32.5586 2.78531 33.121L26.9692 57.8673C27.5003 58.461 28.2815 58.7734 29.0626 58.7734C29.875 58.7734 30.5936 58.461 31.1873 57.8673L55.3712 33.121Z" fill="white" fill-opacity="0.9"/>
</svg>
