<svg width="35" height="36" viewBox="0 0 35 36" fill="none" xmlns="http://www.w3.org/2000/svg">
<path d="M17.5039 9.02644C12.5379 9.02644 8.53235 13.0329 8.53235 18C8.53235 22.9671 12.5379 26.9736 17.5039 26.9736C22.4699 26.9736 26.4755 22.9671 26.4755 18C26.4755 13.0329 22.4699 9.02644 17.5039 9.02644ZM17.5039 23.834C14.2948 23.834 11.6712 21.2177 11.6712 18C11.6712 14.7823 14.287 12.166 17.5039 12.166C20.7209 12.166 23.3366 14.7823 23.3366 18C23.3366 21.2177 20.7131 23.834 17.5039 23.834ZM28.935 8.65938C28.935 9.82305 27.9981 10.7524 26.8424 10.7524C25.679 10.7524 24.7499 9.81524 24.7499 8.65938C24.7499 7.50351 25.6868 6.56633 26.8424 6.56633C27.9981 6.56633 28.935 7.50351 28.935 8.65938ZM34.877 10.7837C34.7443 7.97992 34.104 5.49637 32.0505 3.45018C30.0047 1.40399 27.5218 0.763584 24.7186 0.623006C21.8296 0.458998 13.1704 0.458998 10.2814 0.623006C7.48606 0.755774 5.00307 1.39618 2.94953 3.44237C0.895985 5.48856 0.263525 7.97211 0.122978 10.7759C-0.0409927 13.6655 -0.0409927 22.3267 0.122978 25.2163C0.255717 28.0201 0.895985 30.5036 2.94953 32.5498C5.00307 34.596 7.47825 35.2364 10.2814 35.377C13.1704 35.541 21.8296 35.541 24.7186 35.377C27.5218 35.2442 30.0047 34.6038 32.0505 32.5498C34.0962 30.5036 34.7365 28.0201 34.877 25.2163C35.041 22.3267 35.041 13.6733 34.877 10.7837ZM31.1447 28.3169C30.5357 29.8476 29.3567 31.0269 27.8185 31.6439C25.5151 32.5576 20.0494 32.3468 17.5039 32.3468C14.9585 32.3468 9.48494 32.5498 7.18935 31.6439C5.65895 31.0347 4.47992 29.8554 3.86308 28.3169C2.94953 26.0129 3.16035 20.546 3.16035 18C3.16035 15.454 2.95733 9.97925 3.86308 7.68314C4.47211 6.1524 5.65114 4.97311 7.18935 4.35613C9.49275 3.44237 14.9585 3.65324 17.5039 3.65324C20.0494 3.65324 25.5229 3.45018 27.8185 4.35613C29.3489 4.9653 30.5279 6.14459 31.1447 7.68314C32.0583 9.98706 31.8475 15.454 31.8475 18C31.8475 20.546 32.0583 26.0208 31.1447 28.3169Z" fill="white"/>
</svg>
