<svg width="51" height="36" viewBox="0 0 51 36" fill="none" xmlns="http://www.w3.org/2000/svg">
<path d="M49.4552 5.97632C48.8802 3.82072 47.1859 2.12303 45.0347 1.5469C41.1354 0.5 25.5 0.5 25.5 0.5C25.5 0.5 9.86464 0.5 5.96532 1.5469C3.81411 2.12313 2.11984 3.82072 1.5448 5.97632C0.5 9.88346 0.5 18.0354 0.5 18.0354C0.5 18.0354 0.5 26.1873 1.5448 30.0944C2.11984 32.25 3.81411 33.877 5.96532 34.4531C9.86464 35.5 25.5 35.5 25.5 35.5C25.5 35.5 41.1354 35.5 45.0347 34.4531C47.1859 33.877 48.8802 32.25 49.4552 30.0944C50.5 26.1873 50.5 18.0354 50.5 18.0354C50.5 18.0354 50.5 9.88346 49.4552 5.97632ZM20.3863 25.4367V10.634L33.4545 18.0355L20.3863 25.4367Z" fill="white"/>
</svg>
